<svg width="31" height="31" viewBox="0 0 31 31" fill="none" xmlns="http://www.w3.org/2000/svg">
<path d="M6.87805 21.99H1.52762C1.3635 21.99 1.23043 22.1231 1.23043 22.2872V24.3561C1.23311 24.4501 1.25332 24.5428 1.28984 24.6295L3.40622 28.8504C3.64753 29.4636 4.46216 29.5857 4.87258 29.0701C4.92554 29.0035 4.9684 28.9295 4.99945 28.8504L7.17536 24.6295C7.1918 24.5391 7.1918 24.4464 7.17536 24.3561V22.2872C7.17536 22.1231 7.04229 21.99 6.87805 21.99Z" fill="black"/>
<path d="M1.52762 8.91114H6.87805C7.04229 8.91114 7.17536 8.77807 7.17536 8.61383V7.74587C7.17536 5.4577 4.69824 4.02763 2.71663 5.17171C1.79693 5.70266 1.23043 6.68397 1.23043 7.74587V8.61383C1.23043 8.77807 1.3635 8.91114 1.52762 8.91114Z" fill="black"/>
<path d="M29.5758 27.8754L28.0539 25.4975C28.0003 25.4098 28.0003 25.2996 28.0539 25.2121C28.3158 24.6692 28.2752 24.0292 27.9469 23.5237L19.2673 9.77907C19.1581 9.60886 18.97 9.50586 18.7679 9.50562H11.6341C11.3838 9.50562 11.1604 9.66255 11.0753 9.89789L8.85186 15.9142C8.65974 16.3273 8.25967 16.6046 7.80554 16.6394H7.17536V10.9918C7.17536 10.8277 7.04229 10.6945 6.87805 10.6945H1.52762C1.3635 10.6945 1.23043 10.8276 1.23043 10.9918V19.9092C1.23043 20.0734 1.3635 20.2065 1.52762 20.2065H10.4451C11.3962 20.1699 12.24 19.5858 12.6089 18.7083L15.1177 12.0143C15.1721 11.9298 15.267 11.8801 15.3674 11.8835C15.4816 11.8745 15.5915 11.9294 15.6528 12.0262L24.1897 25.9136C24.529 26.4625 25.1382 26.7853 25.7829 26.7578C25.89 26.7525 25.9911 26.8075 26.0445 26.9004L27.5783 29.2784C28.0818 30.0473 29.2287 29.9829 29.6427 29.1624C29.835 28.7817 29.8094 28.3273 29.5758 27.9706V27.8754Z" fill="black"/>
<path d="M11.634 7.72219H18.7679C19.0963 7.72219 19.3624 7.45605 19.3624 7.12769V5.34417C19.3624 2.14069 15.8946 0.138508 13.1203 1.74025C11.8327 2.48366 11.0396 3.85748 11.0396 5.34417V7.12769C11.0396 7.45605 11.3057 7.72219 11.634 7.72219ZM15.201 2.96627C16.1163 2.96627 16.6883 3.95707 16.2306 4.74967C15.773 5.54238 14.6289 5.54238 14.1712 4.74967C14.0669 4.56899 14.012 4.36396 14.012 4.15516C14.012 3.49856 14.5443 2.96627 15.201 2.96627Z" fill="black"/>
</svg>
