<svg width="70" height="70" viewBox="0 0 70 70" fill="none" xmlns="http://www.w3.org/2000/svg">
<path d="M27.1555 21.6082L26.41 15.0466C26.2563 13.5168 24.9648 12.3545 23.4274 12.3621H15.0163C13.479 12.3545 12.1875 13.5168 12.0337 15.0466L11.1389 21.6082H27.1555Z" fill="#FAD12E"/>
<path d="M28.1698 33.0018L27.6031 26.082H10.841L9.8269 37.744L28.1698 33.0018Z" fill="#FAD12E"/>
<path d="M60.3523 1.47559C57.6841 1.47471 55.2225 2.91088 53.9097 5.23371C53.1758 4.72038 52.3 4.44913 51.4046 4.45817C47.9603 4.45817 45.8081 8.18625 47.5298 11.1688C48.3289 12.5531 49.8059 13.4059 51.4046 13.4059C52.2976 13.4001 53.1694 13.1303 53.9097 12.6307C56.7569 17.6147 63.9319 17.6476 66.8247 12.6899C69.7177 7.73213 66.1588 1.50184 60.4188 1.47559H60.3523Z" fill="#FAD12E"/>
<path d="M32.0173 8.93198C32.0173 12.376 35.7457 14.5285 38.7283 12.8065C40.1125 12.0073 40.9651 10.5303 40.9651 8.93198C40.9651 5.48798 37.237 3.33548 34.2544 5.05748C32.8702 5.85664 32.0173 7.33364 32.0173 8.93198Z" fill="#FAD12E"/>
<path d="M64.5875 28.3489C64.1853 28.3524 63.7851 28.4025 63.3943 28.4979L4.01066 43.8883C2.06495 44.3905 0.704035 46.1438 0.699951 48.1533V67.0332C0.699951 67.8569 1.36758 68.5245 2.19124 68.5245H43.0231C43.8468 68.5245 44.5144 67.8569 44.5144 67.0332V53.9695C44.5144 53.1458 45.182 52.4782 46.0057 52.4782H54.6253C55.4423 52.4939 56.1009 53.1525 56.1166 53.9695V67.0332C56.1166 67.8569 56.7845 68.5245 57.6079 68.5245H67.8087C68.6323 68.5245 69.2999 67.8569 69.2999 67.0332V33.0911C69.2999 30.4836 67.195 28.3652 64.5875 28.3489ZM17.1042 63.3944H14.1216C12.3996 63.3882 11.33 61.5204 12.1966 60.032C12.5959 59.3463 13.3282 58.9234 14.1216 58.9205H17.1042C18.8262 58.9269 19.8957 60.7948 19.0295 62.2831C18.6302 62.9688 17.8978 63.3918 17.1042 63.3944ZM17.1042 54.4466H14.1216C12.3996 54.4405 11.33 52.5724 12.1966 51.0843C12.5959 50.3986 13.3282 49.9757 14.1216 49.9728H17.1042C18.8262 49.9789 19.8957 51.847 19.0295 53.3351C18.6302 54.0208 17.8978 54.4437 17.1042 54.4466ZM32.0174 63.3944H29.0348C27.3128 63.3882 26.2432 61.5204 27.1095 60.032C27.5088 59.3463 28.2412 58.9234 29.0348 58.9205H32.0174C33.7394 58.9269 34.8089 60.7948 33.9424 62.2831C33.5434 62.9688 32.8107 63.3918 32.0174 63.3944ZM32.0174 54.4466H29.0348C27.3128 54.4405 26.2432 52.5724 27.1095 51.0843C27.5088 50.3986 28.2412 49.9757 29.0348 49.9728H32.0174C33.7394 49.9789 34.8089 51.847 33.9424 53.3351C33.5434 54.0208 32.8107 54.4437 32.0174 54.4466Z" fill="#FAD12E"/>
</svg>
