<svg width="31" height="31" viewBox="0 0 31 31" fill="none" xmlns="http://www.w3.org/2000/svg">
<g clip-path="url(#clip0_193_805)">
<path d="M28.3209 13.1874C28.3043 11.9044 28.0345 10.6372 27.5268 9.45884C27.019 8.28043 26.2835 7.21395 25.3623 6.32068C25.1987 6.17666 24.9994 6.07921 24.7852 6.03852C24.5711 5.99783 24.3499 6.01539 24.1448 6.08936C23.9348 6.17195 23.7518 6.31134 23.6163 6.49194C23.4809 6.67254 23.3983 6.88724 23.3778 7.11206C23.3317 7.54206 23.118 7.93657 22.783 8.21005C22.4479 8.48354 22.0186 8.61396 21.5881 8.57306C20.8485 7.81084 20.3527 6.84554 20.164 5.80033C19.9754 4.75513 20.1024 3.67741 20.5289 2.70471C20.6346 2.51688 20.6885 2.30437 20.6852 2.08888C20.6819 1.87338 20.6214 1.66263 20.51 1.47816C20.3985 1.29368 20.2401 1.14208 20.0509 1.03886C19.8618 0.93564 19.6486 0.884488 19.4331 0.890632C14.1857 0.890632 10.241 3.82481 9.08437 8.45131C8.77678 8.34467 8.50251 8.15928 8.28889 7.91362C8.07527 7.66796 7.92977 7.3706 7.86687 7.05118C7.83497 6.83735 7.7467 6.63588 7.61114 6.46746C7.47558 6.29905 7.29762 6.16976 7.09555 6.0929C6.89348 6.01604 6.67458 5.99437 6.46137 6.03013C6.24815 6.06588 6.04829 6.15776 5.88235 6.29633C4.73891 7.26332 3.85416 8.49974 3.30791 9.89407C2.76166 11.2884 2.57108 12.7968 2.75337 14.2831C2.90679 15.4685 3.33295 16.6021 3.99839 17.595C4.66383 18.5879 5.55041 19.4129 6.5885 20.0054C6.63019 20.0258 6.676 20.0364 6.72242 20.0364C6.76885 20.0364 6.81466 20.0258 6.85635 20.0054C6.90008 19.9898 6.93945 19.9639 6.97121 19.9301C7.00297 19.8962 7.0262 19.8552 7.03897 19.8106C7.20513 19.2391 7.42527 18.6846 7.69642 18.1548C7.73375 18.0879 7.74445 18.0093 7.7264 17.9348C7.70834 17.8603 7.66286 17.7954 7.59902 17.753C6.93733 17.3395 6.37568 16.7843 5.95459 16.1274C5.5335 15.4705 5.26349 14.7283 5.16402 13.9544C4.98211 12.3502 5.39352 10.7349 6.32065 9.41313C6.78736 9.97017 7.38258 10.4053 8.05495 10.6811C8.72733 10.9568 9.45668 11.0648 10.1801 10.9959C10.4521 10.9683 10.7068 10.85 10.9033 10.6601C11.0999 10.4702 11.2268 10.2197 11.2637 9.94883C11.4387 8.29579 12.1723 6.75186 13.3433 5.57203C14.5142 4.3922 16.0526 3.64702 17.7043 3.45956C17.4736 4.81181 17.6068 6.20109 18.0904 7.48483C18.5739 8.76857 19.3903 9.90053 20.4558 10.7646C20.6365 10.8869 20.8468 10.9583 21.0646 10.9715C21.7661 11.052 22.4766 10.9598 23.1344 10.7031C23.7922 10.4463 24.3773 10.0328 24.8388 9.49836C25.511 10.5991 25.8728 11.8612 25.8859 13.1509C25.9078 13.8878 25.7587 14.6197 25.4503 15.2893C25.1419 15.9589 24.6826 16.548 24.1083 17.0103C24.0505 17.058 24.0123 17.1254 24.001 17.1996C23.9898 17.2737 24.0063 17.3494 24.0474 17.4121C24.3658 17.921 24.6349 18.4592 24.851 19.0192C24.8695 19.0633 24.8977 19.1026 24.9335 19.1343C24.9694 19.1659 25.0119 19.189 25.058 19.2018C25.0982 19.2196 25.1418 19.2288 25.1858 19.2288C25.2298 19.2288 25.2734 19.2196 25.3136 19.2018C26.2668 18.52 27.039 17.6157 27.5631 16.5675C28.0872 15.5193 28.3473 14.359 28.3209 13.1874Z" fill="black"/>
<path d="M23.6944 22.5012C23.6944 20.9962 23.2481 19.525 22.412 18.2737C21.5759 17.0223 20.3874 16.047 18.997 15.4711C17.6066 14.8951 16.0766 14.7445 14.6005 15.0381C13.1244 15.3317 11.7686 16.0564 10.7044 17.1206C9.64019 18.1848 8.91547 19.5406 8.62186 21.0167C8.32825 22.4928 8.47894 24.0228 9.05488 25.4132C9.63082 26.8036 10.6061 27.9921 11.8575 28.8282C13.1088 29.6643 14.58 30.1106 16.085 30.1106C18.1022 30.1074 20.0358 29.3046 21.4621 27.8783C22.8884 26.452 23.6912 24.5184 23.6944 22.5012ZM20.7115 22.5012C20.7115 22.7434 20.6153 22.9757 20.4441 23.1469C20.2728 23.3181 20.0406 23.4143 19.7984 23.4143H16.1459C15.9047 23.4112 15.6743 23.314 15.5037 23.1434C15.3331 22.9728 15.2359 22.7424 15.2328 22.5012V18.24C15.2328 17.9978 15.329 17.7655 15.5002 17.5943C15.6715 17.4231 15.9037 17.3268 16.1459 17.3268C16.3881 17.3268 16.6203 17.4231 16.7916 17.5943C16.9628 17.7655 17.059 17.9978 17.059 18.24V21.2837C17.059 21.3237 17.0669 21.3633 17.0822 21.4002C17.0975 21.4371 17.1199 21.4707 17.1482 21.499C17.1764 21.5272 17.21 21.5496 17.2469 21.5649C17.2839 21.5802 17.3234 21.5881 17.3634 21.5881H19.7984C20.0406 21.5881 20.2728 21.6843 20.4441 21.8555C20.6153 22.0268 20.7115 22.259 20.7115 22.5012Z" fill="black"/>
</g>
<defs>
<clipPath id="clip0_193_805">
<rect width="29.22" height="29.22" fill="white" transform="translate(0.890625 0.890625)"/>
</clipPath>
</defs>
</svg>
