<svg width="1613" height="335" viewBox="0 0 1613 335" fill="none" xmlns="http://www.w3.org/2000/svg">
<path d="M1419.34 123.673C1470 123.673 1521.88 147.582 1551.55 189.029V131.108H1611.78V495.552H1551.55V436.487C1537.35 457.056 1518.02 473.566 1494.12 484.917C1469.84 496.748 1444.91 502.987 1419.34 502.987C1317.18 502.987 1233.71 421.992 1233.71 313.64C1233.71 204.675 1315.93 123.673 1419.34 123.673ZM1424.92 179.575C1353.01 179.575 1295.19 239.197 1295.19 313.02C1295.19 387.459 1353 446.465 1424.92 446.465C1498.69 446.465 1555.88 387.456 1555.88 313.02C1555.88 239.2 1498.69 179.575 1424.92 179.575Z" fill="#FAD12E" stroke="#FAD12E" stroke-width="2"/>
<path d="M1076.93 495.552H1015.46V131.107H1075.69V180.133C1084.54 164.102 1096.12 151.967 1110.52 143.709C1125.96 134.852 1144.57 130.488 1166.39 130.488C1198.2 130.488 1219.43 139.231 1237.5 149.199L1238.31 149.645L1237.93 150.485L1213.15 205.626L1212.67 206.692L1211.69 206.054C1204.57 201.407 1198.31 197.443 1190.15 194.622C1181.99 191.803 1171.89 190.107 1157.1 190.107C1132.83 190.107 1112.69 197.472 1098.6 213.542C1084.49 229.634 1076.31 254.607 1076.31 290.096C1076.31 293.849 1075.07 345.224 1076.93 394.765V495.552Z" fill="#FAD12E" stroke="#FAD12E" stroke-width="2"/>
<path d="M956.965 131.108V495.552H895.488V131.108H956.965ZM926.226 1C940.064 1 951.026 5.25028 958.531 12.7549C966.034 20.2582 969.976 30.9099 969.976 43.5107C969.976 56.415 966.038 67.2214 958.535 74.8047C951.029 82.3903 940.064 86.6406 926.226 86.6406C912.692 86.6405 901.882 82.3863 894.457 74.8008C887.034 67.2186 883.096 56.4148 883.096 43.5107C883.096 30.8888 887.361 20.2428 894.932 12.751C902.503 5.25991 913.301 1.00008 926.226 1Z" fill="#FAD12E" stroke="#FAD12E" stroke-width="2"/>
<path d="M583.878 131.108L584.123 131.753L691.605 414.893L797.859 131.756L798.102 131.108H862.834L862.303 132.471L721.043 494.915L720.795 495.551H660.57L660.321 494.917L518.441 132.472L517.907 131.108H583.878Z" fill="#FAD12E" stroke="#FAD12E" stroke-width="2"/>
<path d="M485.314 35.0757V495.551H423.836V35.0757H485.314Z" fill="#FAD12E" stroke="#FAD12E" stroke-width="2"/>
<path d="M190.347 123.673C296.819 123.673 377.216 199.064 377.216 308.683V334.465H60.749C69.1785 402.11 121.224 448.324 193.444 448.324C250.655 448.324 291.822 418.828 313.351 372.08L313.793 371.119L314.729 371.615L364.912 398.256L365.781 398.717L365.335 399.593C348.85 431.94 326.897 457.803 298.526 475.574C270.154 493.345 235.423 502.987 193.444 502.987C135.276 502.987 87.1523 482.763 53.5684 449.179C19.9865 415.597 1.00004 368.714 1 315.499C1 207.16 81.9736 123.673 190.347 123.673ZM190.347 178.336C126.847 178.336 77.9 220.766 63.9756 279.803H314.936C309.559 248.325 295.801 223.096 274.896 205.675C253.734 188.04 225.164 178.336 190.347 178.336Z" fill="#FAD12E" stroke="#FAD12E" stroke-width="2"/>
</svg>
