<svg width="93" height="106" viewBox="0 0 93 106" fill="none" xmlns="http://www.w3.org/2000/svg">
<path d="M92.6 93.8243C92.5999 92.2474 91.3156 90.9621 89.7406 90.9621C88.1658 90.9622 86.8822 92.2475 86.8821 93.8243C86.8821 95.4012 88.1657 96.6871 89.7406 96.6872C91.3156 96.6872 92.6 95.4013 92.6 93.8243ZM93 93.8243C93 95.6225 91.5365 97.0877 89.7406 97.0877C87.9448 97.0876 86.4821 95.6224 86.4821 93.8243C86.4822 92.0263 87.9449 90.5617 89.7406 90.5616C91.5365 90.5616 92.9999 92.0262 93 93.8243Z" fill="#FAD12E"/>
<path d="M90.7646 95.212H90.3027L89.8407 94.0745H89.1416V95.212H88.7171V92.4369H89.8282C90.1029 92.4369 90.3151 92.4994 90.4774 92.6369C90.6397 92.7744 90.7147 92.9744 90.7147 93.237C90.7147 93.4245 90.6772 93.5745 90.5898 93.6995C90.5024 93.8245 90.3901 93.9245 90.2527 93.987L90.7646 95.212ZM89.1416 93.687H89.7658C89.9281 93.687 90.053 93.6495 90.1404 93.5745C90.2277 93.4995 90.2777 93.387 90.2777 93.2495C90.2777 93.1119 90.2277 92.9994 90.1404 92.9244C90.053 92.8494 89.9281 92.8119 89.7658 92.8119H89.1416V93.687Z" fill="#FAD12E"/>
<path d="M4.04508 96.0496C2.75914 95.3121 1.76036 94.2995 1.04872 92.9995C0.349575 91.6869 0 90.2119 0 88.5618C0 87.0367 0.31212 85.5992 0.936361 84.2491C1.5606 82.9116 2.50945 81.824 3.77041 80.9865C5.03138 80.1489 6.5795 79.7364 8.40228 79.7364C9.91294 79.7364 11.2988 80.0489 12.5722 80.674C13.8457 81.299 14.8694 82.2615 15.6435 83.5616C16.4175 84.8616 16.8046 86.4742 16.8046 88.4118V89.2743H4.16993C4.23235 89.9743 4.43211 90.6244 4.79417 91.2369C5.19368 92.0119 5.71804 92.612 6.39222 93.037C7.05392 93.462 7.81549 93.6745 8.66446 93.6745C9.57585 93.6745 10.3624 93.437 11.0116 92.9745C11.6608 92.5119 12.1352 91.9119 12.4099 91.1744H16.5174C15.9806 92.9495 15.0442 94.3745 13.6834 95.4871C12.335 96.5871 10.6121 97.1371 8.50216 97.1371C6.82919 97.1496 5.3435 96.7746 4.04508 96.0496ZM12.6846 86.2617C12.6097 85.6242 12.3974 85.1116 12.0603 84.7116C11.6858 84.1366 11.1864 83.6991 10.5746 83.3866C9.96288 83.0741 9.27622 82.9241 8.51464 82.9241C7.76555 82.9241 7.07889 83.0741 6.47962 83.3741C5.86786 83.6741 5.38095 84.1241 5.00641 84.7116C4.64435 85.1491 4.43211 85.6617 4.3572 86.2617H12.6846Z" fill="#FAD12E"/>
<path d="M25.3691 97.1496C24.0582 97.1496 23.0595 96.8496 22.3853 96.2371C21.7111 95.6371 21.374 94.6745 21.374 93.362V73.6362H25.5314V92.1244C25.5314 92.6995 25.6438 93.0995 25.8561 93.337C26.0683 93.5745 26.4304 93.687 26.9547 93.687H28.0659V97.1371H25.3691V97.1496Z" fill="#FAD12E"/>
<path d="M39.427 97.1496H36.131L29.7638 79.8614H34.1959L37.7666 90.7744L41.3996 79.8614H45.8317L39.427 97.1496Z" fill="#FAD12E"/>
<path d="M48.903 77.2988C48.4161 76.8613 48.1664 76.2988 48.1664 75.5737C48.1664 74.8987 48.4161 74.3362 48.903 73.8737C49.3899 73.4236 50.0017 73.1986 50.7133 73.1986C51.4125 73.1986 52.0117 73.4236 52.5111 73.8737C53.0105 74.3237 53.2602 74.8862 53.2602 75.5737C53.2602 76.2738 53.0105 76.8363 52.5236 77.2863C52.0367 77.7238 51.4249 77.9488 50.7133 77.9488C50.0017 77.9488 49.4024 77.7363 48.903 77.2988ZM52.7858 97.1496H48.6283V79.8614H52.7858V97.1496Z" fill="#FAD12E"/>
<path d="M57.118 97.1496V79.8614H61.2755V81.924C61.9122 81.0365 62.6238 80.4114 63.4104 80.0489C64.1969 79.6739 65.1333 79.4989 66.1945 79.4989H66.6814V83.4991H65.7325C64.4216 83.4991 63.3979 83.8491 62.6613 84.5491C62.1869 85.0241 61.8373 85.6242 61.6126 86.3492C61.3878 87.0742 61.2755 88.0118 61.2755 89.1368V97.1496H57.118Z" fill="#FAD12E"/>
<path d="M70.4144 95.8121C69.3656 94.9246 68.8413 93.6745 68.8413 92.0744C68.8413 90.3494 69.503 89.0368 70.8139 88.1368C71.7627 87.4742 73.0986 86.9867 74.8465 86.6617L79.9902 85.7117C79.9527 84.6491 79.6781 83.8366 79.1537 83.2741C78.6418 82.7241 77.8678 82.4365 76.844 82.4365C76.045 82.4365 75.3458 82.674 74.7341 83.1491C74.1223 83.6241 73.7478 84.2616 73.6105 85.0616H69.4905C69.7776 83.1491 70.6141 81.699 72.0124 80.6865C73.4107 79.6864 75.0337 79.1739 76.869 79.1739C77.9177 79.1739 78.8915 79.3239 79.7904 79.6239C80.6893 79.9239 81.4634 80.3615 82.1001 80.9365C82.7369 81.4865 83.1988 82.1365 83.486 82.8741C83.7731 83.6116 83.9479 84.3491 84.0228 85.0866C84.0977 85.8242 84.1352 86.7367 84.1352 87.8243V96.8246H79.9777V94.487C79.5532 95.2496 79.0289 95.8246 78.4046 96.2121C77.4433 96.8496 76.1324 97.1621 74.4969 97.1621C72.8239 97.1496 71.4631 96.6996 70.4144 95.8121ZM77.7429 93.387C78.6044 92.9495 79.2037 92.3869 79.5283 91.6619C79.8529 90.9369 80.0401 89.9619 80.0776 88.7368L75.9576 89.5743C74.8465 89.7743 74.0474 90.1119 73.5605 90.5619C73.186 90.9369 73.0112 91.3869 73.0112 91.9119C73.0112 92.5495 73.2359 93.037 73.6979 93.3745C74.1598 93.712 74.7715 93.887 75.5331 93.887C76.3446 93.8745 77.0812 93.712 77.7429 93.387Z" fill="#FAD12E"/>
<path d="M9.1264 105.887C8.93913 105.812 8.77683 105.712 8.65198 105.55C8.52713 105.4 8.43974 105.2 8.41477 104.962H8.92664C8.97658 105.175 9.06398 105.325 9.2138 105.412C9.36361 105.5 9.52592 105.55 9.72567 105.55C9.91294 105.55 10.0503 105.512 10.1626 105.437C10.275 105.362 10.3249 105.25 10.3249 105.087C10.3249 104.975 10.2875 104.887 10.2251 104.825C10.1626 104.762 10.0752 104.712 9.97537 104.675C9.87549 104.637 9.73816 104.6 9.55089 104.562C9.32616 104.512 9.15137 104.462 9.01404 104.412C8.8767 104.362 8.75186 104.275 8.66446 104.162C8.57707 104.05 8.51464 103.9 8.51464 103.7C8.51464 103.512 8.56459 103.362 8.65198 103.225C8.73937 103.087 8.86422 102.987 9.02652 102.925C9.18883 102.862 9.36361 102.825 9.56337 102.825C9.86301 102.825 10.1252 102.9 10.3499 103.062C10.5746 103.225 10.6995 103.45 10.7494 103.762H10.2375C10.2001 103.6 10.1127 103.475 9.98785 103.387C9.86301 103.3 9.71319 103.262 9.5384 103.262C9.3761 103.262 9.23876 103.3 9.15137 103.362C9.05149 103.437 9.00155 103.525 9.00155 103.65C9.00155 103.75 9.02652 103.825 9.10143 103.887C9.16386 103.95 9.23876 103.987 9.33864 104.025C9.43852 104.05 9.56337 104.087 9.72567 104.125C9.96288 104.175 10.1502 104.225 10.2875 104.287C10.4373 104.337 10.5497 104.425 10.662 104.55C10.7619 104.675 10.8119 104.837 10.8119 105.05C10.8119 105.337 10.712 105.562 10.5122 105.725C10.3125 105.887 10.0378 105.975 9.68822 105.975C9.51343 105.987 9.31367 105.962 9.1264 105.887Z" fill="#FAD12E"/>
<path d="M14.5198 105.938H12.5098V102.887H14.5198V103.337H13.0092V104.187H14.3575V104.637H13.0092V105.487H14.5198V105.938Z" fill="#FAD12E"/>
<path d="M18.465 105.938H17.9157L17.4163 104.687H16.6922V105.938H16.1803V102.887H17.4413C17.7409 102.887 17.9781 102.962 18.1404 103.112C18.3152 103.262 18.4026 103.487 18.4026 103.787C18.4026 103.987 18.3652 104.162 18.2778 104.3C18.1904 104.437 18.0655 104.55 17.9032 104.612L18.465 105.938ZM16.6797 104.25H17.3664C17.5412 104.25 17.666 104.212 17.7659 104.137C17.8533 104.062 17.9032 103.95 17.9032 103.8C17.9032 103.65 17.8533 103.537 17.7659 103.462C17.6785 103.387 17.5412 103.35 17.3664 103.35H16.6797V104.25Z" fill="#FAD12E"/>
<path d="M21.4739 105.938H20.9121L19.8259 102.887H20.3503L21.1992 105.387L22.0357 102.887H22.5601L21.4739 105.938Z" fill="#FAD12E"/>
<path d="M24.5826 102.887H24.0707V105.938H24.5826V102.887Z" fill="#FAD12E"/>
<path d="M26.8923 105.775C26.68 105.637 26.5177 105.437 26.4054 105.2C26.293 104.962 26.2431 104.7 26.2431 104.412C26.2431 104.125 26.293 103.862 26.4054 103.625C26.5177 103.387 26.6676 103.2 26.8923 103.05C27.1045 102.912 27.3792 102.837 27.6913 102.837C28.0534 102.837 28.3405 102.925 28.5653 103.1C28.79 103.275 28.9273 103.512 28.9648 103.8H28.4154C28.378 103.637 28.3031 103.512 28.1782 103.425C28.0534 103.337 27.8911 103.287 27.6913 103.287C27.4042 103.287 27.167 103.387 27.0171 103.587C26.8673 103.787 26.7799 104.062 26.7799 104.4C26.7799 104.737 26.8548 105.012 27.0171 105.212C27.1794 105.425 27.4042 105.525 27.6913 105.525C27.8911 105.525 28.0534 105.475 28.1782 105.375C28.3031 105.275 28.3905 105.137 28.4154 104.95H28.9648C28.9148 105.262 28.7775 105.512 28.5653 105.7C28.3405 105.887 28.0534 105.975 27.6913 105.975C27.3792 105.987 27.1045 105.925 26.8923 105.775Z" fill="#FAD12E"/>
<path d="M32.6103 105.938H30.5878V102.887H32.6103V103.337H31.0997V104.187H32.4355V104.637H31.0997V105.487H32.6103V105.938Z" fill="#FAD12E"/>
<path d="M36.955 105.9C36.8052 105.837 36.6804 105.75 36.593 105.637C36.5056 105.525 36.4556 105.375 36.4556 105.212C36.4556 105.012 36.5181 104.85 36.6304 104.712C36.7428 104.575 36.9176 104.437 37.1548 104.3C37.0299 104.162 36.9301 104.037 36.8801 103.937C36.8302 103.837 36.7927 103.712 36.7927 103.587C36.7927 103.437 36.8302 103.3 36.9051 103.187C36.98 103.075 37.0799 102.987 37.2047 102.925C37.3296 102.862 37.4794 102.837 37.6417 102.837C37.8789 102.837 38.0662 102.9 38.216 103.025C38.3658 103.15 38.4407 103.325 38.4407 103.537C38.4407 103.862 38.241 104.137 37.829 104.375L38.3783 105.05C38.4407 104.95 38.4782 104.85 38.5032 104.75C38.5281 104.65 38.5531 104.537 38.5531 104.425H39.0025C38.9651 104.812 38.8527 105.137 38.653 105.412L39.0775 105.95H38.4907L38.3034 105.7C38.216 105.8 38.0912 105.875 37.9413 105.925C37.7915 105.975 37.6292 106 37.4669 106C37.2796 105.988 37.1049 105.963 36.955 105.9ZM37.7915 105.525C37.8914 105.487 37.9913 105.437 38.0662 105.375L37.4419 104.587C37.2796 104.687 37.1423 104.775 37.0674 104.862C36.98 104.95 36.9426 105.05 36.9426 105.175C36.9426 105.3 36.9925 105.4 37.0924 105.475C37.1922 105.55 37.3296 105.575 37.4794 105.575C37.5793 105.587 37.6792 105.562 37.7915 105.525ZM37.8664 103.825C37.9413 103.75 37.9788 103.65 37.9788 103.537C37.9788 103.45 37.9413 103.375 37.8789 103.312C37.8165 103.25 37.7291 103.225 37.6292 103.225C37.5293 103.225 37.4419 103.262 37.367 103.325C37.2921 103.387 37.2547 103.475 37.2547 103.587C37.2547 103.675 37.2796 103.75 37.3171 103.812C37.3546 103.887 37.4295 103.975 37.5169 104.075C37.6792 103.987 37.7915 103.912 37.8664 103.825Z" fill="#FAD12E"/>
<path d="M43.5595 105.887C43.3722 105.812 43.2099 105.712 43.0851 105.55C42.9602 105.4 42.8728 105.2 42.8479 104.962H43.3598C43.4097 105.175 43.4971 105.325 43.6469 105.412C43.7967 105.5 43.959 105.55 44.1588 105.55C44.3461 105.55 44.4834 105.512 44.5958 105.437C44.7081 105.362 44.7581 105.25 44.7581 105.087C44.7581 104.975 44.7206 104.887 44.6582 104.825C44.5958 104.762 44.5084 104.712 44.4085 104.675C44.3086 104.637 44.1713 104.6 43.984 104.562C43.7593 104.512 43.5845 104.462 43.4471 104.412C43.3098 104.362 43.185 104.275 43.0976 104.162C43.0102 104.05 42.9478 103.9 42.9478 103.7C42.9478 103.512 42.9977 103.362 43.0851 103.225C43.1725 103.087 43.2973 102.987 43.4596 102.925C43.6219 102.862 43.7967 102.825 43.9965 102.825C44.2961 102.825 44.5583 102.9 44.783 103.062C45.0078 103.225 45.1326 103.45 45.1825 103.762H44.6707C44.6332 103.6 44.5458 103.475 44.421 103.387C44.2961 103.3 44.1463 103.262 43.9715 103.262C43.8092 103.262 43.6719 103.3 43.5845 103.362C43.4846 103.437 43.4347 103.525 43.4347 103.65C43.4347 103.75 43.4596 103.825 43.5345 103.887C43.597 103.95 43.6719 103.987 43.7718 104.025C43.8716 104.05 43.9965 104.087 44.1588 104.125C44.396 104.175 44.5833 104.225 44.7206 104.287C44.8704 104.337 44.9828 104.425 45.0951 104.55C45.195 104.675 45.245 104.837 45.245 105.05C45.245 105.337 45.1451 105.562 44.9453 105.725C44.7456 105.887 44.4709 105.975 44.1213 105.975C43.9465 105.987 43.7468 105.962 43.5595 105.887Z" fill="#FAD12E"/>
<path d="M47.4798 105.775C47.2675 105.637 47.0927 105.437 46.9928 105.2C46.8805 104.962 46.8305 104.7 46.8305 104.4C46.8305 104.112 46.8805 103.85 46.9928 103.612C47.1052 103.375 47.2675 103.187 47.4798 103.05C47.692 102.912 47.9667 102.837 48.2913 102.837C48.6034 102.837 48.8781 102.912 49.0903 103.05C49.315 103.187 49.4773 103.387 49.5772 103.625C49.6896 103.862 49.7395 104.125 49.7395 104.412C49.7395 104.7 49.6896 104.962 49.5772 105.212C49.4648 105.45 49.3025 105.637 49.0903 105.787C48.8656 105.925 48.6034 106 48.2913 106C47.9667 105.988 47.692 105.925 47.4798 105.775ZM48.9779 105.225C49.1402 105.025 49.2276 104.75 49.2276 104.412C49.2276 104.075 49.1402 103.8 48.9779 103.6C48.8156 103.4 48.5784 103.287 48.2913 103.287C48.0915 103.287 47.9292 103.337 47.7919 103.425C47.6545 103.525 47.5422 103.65 47.4673 103.825C47.3924 104 47.3549 104.187 47.3549 104.412C47.3549 104.637 47.3924 104.825 47.4673 105C47.5422 105.175 47.6421 105.3 47.7919 105.4C47.9292 105.5 48.104 105.537 48.2913 105.537C48.5784 105.537 48.8156 105.437 48.9779 105.225Z" fill="#FAD12E"/>
<path d="M53.2228 105.938H51.4V102.887H51.9119V105.487H53.2228V105.938Z" fill="#FAD12E"/>
<path d="M54.9457 105.687C54.7459 105.487 54.646 105.212 54.646 104.85V102.887H55.1579V104.85C55.1579 105.312 55.3826 105.537 55.8446 105.537C56.3065 105.537 56.5312 105.312 56.5312 104.85V102.887H57.0431V104.85C57.0431 105.212 56.9432 105.487 56.7435 105.687C56.5437 105.887 56.2441 105.987 55.8446 105.987C55.4326 105.987 55.1329 105.887 54.9457 105.687Z" fill="#FAD12E"/>
<path d="M60.0145 105.938H59.5026V103.337H58.5413V102.887H60.9758V103.337H60.0145V105.938Z" fill="#FAD12E"/>
<path d="M63.0108 102.887H62.499V105.938H63.0108V102.887Z" fill="#FAD12E"/>
<path d="M65.3205 105.775C65.1083 105.637 64.9335 105.437 64.8336 105.2C64.7213 104.962 64.6713 104.7 64.6713 104.4C64.6713 104.112 64.7213 103.85 64.8336 103.612C64.946 103.375 65.1083 103.187 65.3205 103.05C65.5328 102.912 65.8075 102.837 66.1321 102.837C66.4442 102.837 66.7188 102.912 66.9311 103.05C67.1558 103.187 67.3181 103.387 67.418 103.625C67.5304 103.862 67.5803 104.125 67.5803 104.412C67.5803 104.7 67.5304 104.962 67.418 105.212C67.3056 105.45 67.1433 105.637 66.9311 105.787C66.7064 105.925 66.4442 106 66.1321 106C65.8075 105.988 65.5453 105.925 65.3205 105.775ZM66.8187 105.225C66.981 105.025 67.0684 104.75 67.0684 104.412C67.0684 104.075 66.981 103.8 66.8187 103.6C66.6564 103.4 66.4192 103.287 66.1321 103.287C65.9323 103.287 65.77 103.337 65.6327 103.425C65.4953 103.525 65.383 103.65 65.3081 103.825C65.2332 104 65.1957 104.187 65.1957 104.412C65.1957 104.637 65.2332 104.825 65.3081 105C65.383 105.175 65.4828 105.3 65.6327 105.4C65.77 105.5 65.9448 105.537 66.1321 105.537C66.4317 105.537 66.6564 105.437 66.8187 105.225Z" fill="#FAD12E"/>
<path d="M69.7527 105.938H69.2533V102.887H69.865L71.151 105.237V102.887H71.6504V105.938H71.0386L69.7527 103.587V105.938Z" fill="#FAD12E"/>
<path d="M73.9975 105.887C73.8102 105.812 73.6479 105.712 73.5231 105.55C73.3982 105.387 73.3108 105.2 73.2858 104.962H73.7977C73.8477 105.175 73.9351 105.325 74.0849 105.412C74.2347 105.5 74.397 105.55 74.5967 105.55C74.784 105.55 74.9213 105.512 75.0337 105.437C75.1461 105.362 75.196 105.25 75.196 105.087C75.196 104.975 75.1586 104.887 75.0961 104.825C75.0337 104.762 74.9463 104.712 74.8464 104.675C74.7466 104.637 74.6092 104.6 74.422 104.562C74.1972 104.512 74.0224 104.462 73.8851 104.412C73.7478 104.362 73.6229 104.275 73.5355 104.162C73.4357 104.05 73.3857 103.9 73.3857 103.7C73.3857 103.512 73.4357 103.362 73.5231 103.225C73.6104 103.087 73.7353 102.987 73.8976 102.925C74.0599 102.862 74.2347 102.825 74.4344 102.825C74.7341 102.825 74.9963 102.9 75.221 103.062C75.4457 103.225 75.5706 103.45 75.6205 103.762H75.1086C75.0712 103.6 74.9838 103.475 74.8589 103.387C74.7341 103.3 74.5843 103.262 74.4095 103.262C74.2472 103.262 74.1098 103.3 74.0224 103.362C73.9226 103.437 73.8726 103.525 73.8726 103.65C73.8726 103.75 73.8976 103.825 73.9725 103.887C74.0349 103.95 74.1098 103.987 74.2097 104.025C74.3096 104.05 74.4344 104.087 74.5967 104.125C74.834 104.175 75.0212 104.225 75.1586 104.287C75.3084 104.337 75.4207 104.425 75.5331 104.55C75.633 104.675 75.6829 104.837 75.6829 105.05C75.6829 105.337 75.583 105.562 75.3833 105.725C75.1835 105.887 74.9089 105.975 74.5593 105.975C74.3845 105.987 74.1847 105.962 73.9975 105.887Z" fill="#FAD12E"/>
<path d="M36.4806 0.208112C36.0312 0.00810399 35.5443 -0.0418981 35.0948 0.033105C34.3457 0.170611 33.6716 0.670632 33.3594 1.43316L6.55453 65.9733L6.42969 66.5609L37.6043 3.35824C38.1786 2.18319 37.6792 0.758135 36.4806 0.208112ZM35.0823 4.7333L31.262 13.1336C31.1122 13.4462 30.7626 13.5837 30.4505 13.4462C30.1383 13.2962 30.0135 12.9336 30.1508 12.6211L33.9712 4.22078C34.0586 4.03327 34.2334 3.90827 34.4206 3.87076C34.5455 3.84576 34.6703 3.85826 34.7827 3.90827C35.0948 4.05827 35.2322 4.42079 35.0823 4.7333Z" fill="#FAD12E"/>
<path d="M37.7666 55.3229C34.5954 53.5228 32.1484 51.0227 30.4255 47.8226C28.6901 44.635 27.8286 41.0098 27.8286 36.9596C27.8286 33.2095 28.5902 29.6843 30.1259 26.3842C31.6615 23.0966 33.9712 20.4214 37.0674 18.3714C40.1636 16.3213 43.9465 15.2962 48.4286 15.2962C52.1241 15.2962 55.5449 16.0588 58.6537 17.5963C61.7749 19.1339 64.2843 21.4965 66.182 24.6966C68.0797 27.8968 69.0285 31.8594 69.0285 36.5846V38.7097H38.0537C38.2035 40.4223 38.7154 42.0223 39.5893 43.5349C40.5632 45.435 41.8616 46.91 43.4971 47.9601C45.1326 49.0101 46.9928 49.5352 49.0903 49.5352C51.3251 49.5352 53.2602 48.9601 54.8583 47.8101C56.4688 46.66 57.6049 45.185 58.2916 43.3849H68.3793C67.0684 47.7226 64.7462 51.2477 61.4378 53.9603C58.1293 56.673 53.8845 58.023 48.7282 58.023C44.5833 58.023 40.9252 57.123 37.7666 55.3229ZM58.9533 31.3219C58.7535 29.7593 58.2417 28.4968 57.4177 27.5217C56.4938 26.1092 55.2703 25.0216 53.7596 24.2716C52.2489 23.5216 50.5635 23.1341 48.7157 23.1341C46.868 23.1341 45.195 23.4966 43.7093 24.2341C42.2236 24.9716 41.0126 26.0592 40.0887 27.5217C39.2148 28.5968 38.678 29.8593 38.4782 31.3219H58.9533Z" fill="#FAD12E"/>
<path d="M19.7385 25.0841C22.4477 17.5713 28.5028 10.8211 36.156 7.88343C37.3046 7.42091 38.6655 6.97089 39.864 6.67088L40.4882 6.50837C40.8004 6.43337 41.4496 6.30836 41.7617 6.24586C42.1737 6.14586 43.2474 6.00835 43.6844 5.93335C44.0464 5.87085 44.6082 5.84585 44.9828 5.80834C49.29 5.43333 53.7097 5.99585 57.7922 7.42091C68.5042 11.1586 76.4695 20.7465 78.1674 31.9844C80.6144 47.7476 70.4768 62.9982 54.9956 66.7859C51.2127 67.7234 47.2425 67.9234 43.3722 67.4109C41.2248 67.1234 39.1024 66.5859 37.0674 65.8858C33.4468 64.4983 30.1259 62.3107 27.3168 59.6356C25.469 57.8605 23.8335 55.8604 22.5101 53.6728C22.0607 52.9603 21.6611 52.2103 21.2741 51.4477C24.3953 56.4354 28.8899 60.4606 34.1959 62.9357C38.8777 65.1108 43.959 66.3233 49.1277 66.0108C49.727 65.9608 50.3762 65.9358 50.963 65.8483C51.3251 65.7983 51.8245 65.7483 52.1865 65.6858C53.0355 65.5483 54.0717 65.3233 54.8957 65.1233C55.0705 65.0733 55.5949 64.9233 55.7821 64.8733C68.8413 61.0981 77.668 48.5726 76.844 34.9971C76.482 28.4218 73.8227 22.009 69.4156 17.1088C54.8208 0.908139 29.0397 5.80834 19.7385 25.0841Z" fill="#FAD12E"/>
</svg>
