<svg width="31" height="31" viewBox="0 0 31 31" fill="none" xmlns="http://www.w3.org/2000/svg">
<g clip-path="url(#clip0_193_827)">
<path d="M11.4342 27.5538C11.4342 28.0381 11.6266 28.5027 11.9691 28.8451C12.3116 29.1876 12.7761 29.38 13.2605 29.38C13.7448 29.38 14.2093 29.1876 14.5518 28.8451C14.8943 28.5027 15.0867 28.0381 15.0867 27.5538C15.0867 27.0694 14.8943 26.6049 14.5518 26.2624C14.2093 25.9199 13.7448 25.7275 13.2605 25.7275C12.7761 25.7275 12.3116 25.9199 11.9691 26.2624C11.6266 26.6049 11.4342 27.0694 11.4342 27.5538Z" fill="black"/>
<path d="M27.7973 17.1565C27.656 16.6521 27.3558 16.2067 26.9412 15.8865C26.5267 15.5663 26.02 15.3883 25.4963 15.3789H22.4647C22.3888 15.3765 22.3163 15.3469 22.2604 15.2955C22.2046 15.2441 22.169 15.1743 22.1603 15.0989C22.0688 14.5807 21.7978 14.1113 21.3949 13.773C20.992 13.4346 20.4828 13.2489 19.9566 13.2483H17.0346C16.9789 13.2506 16.9248 13.2676 16.8778 13.2975C16.8308 13.3274 16.7925 13.3693 16.7668 13.4187C16.0047 14.9359 14.8362 16.2117 13.3916 17.1038C11.947 17.996 10.283 18.4694 8.58518 18.4714H7.81816C7.7295 18.4703 7.64329 18.5005 7.57466 18.5566C7.5432 18.5836 7.51815 18.6173 7.50131 18.6552C7.48446 18.6931 7.47625 18.7343 7.47726 18.7757V25.1189C7.47726 25.684 7.70173 26.2259 8.1013 26.6255C8.50087 27.0251 9.0428 27.2495 9.60788 27.2495H9.98531C10.0565 27.251 10.126 27.2274 10.1816 27.1829C10.2372 27.1384 10.2755 27.0758 10.2897 27.006C10.4091 26.303 10.7735 25.6648 11.3183 25.2047C11.8632 24.7446 12.5533 24.4921 13.2665 24.4921C13.9796 24.4921 14.6698 24.7446 15.2146 25.2047C15.7595 25.6648 16.1239 26.303 16.2433 27.006C16.2546 27.076 16.29 27.1398 16.3433 27.1865C16.3966 27.2332 16.4646 27.2598 16.5355 27.2617H21.5881C21.6604 27.2603 21.73 27.2341 21.7854 27.1876C21.8408 27.1411 21.8786 27.077 21.8925 27.006C22.0118 26.303 22.3762 25.6648 22.9211 25.2047C23.466 24.7446 24.1561 24.4921 24.8692 24.4921C25.5824 24.4921 26.2725 24.7446 26.8174 25.2047C27.3622 25.6648 27.7266 26.303 27.846 27.006C27.8574 27.0619 27.888 27.1119 27.9325 27.1475C27.977 27.1831 28.0326 27.202 28.0895 27.2008C28.434 27.1829 28.7688 27.0802 29.064 26.9018C29.3592 26.7234 29.6058 26.4748 29.7819 26.1781C29.9659 25.8788 30.0829 25.5431 30.1249 25.1943C30.167 24.8454 30.133 24.4916 30.0254 24.1571L27.7973 17.1565ZM25.2406 17.8017C25.3049 17.8009 25.3678 17.8205 25.4203 17.8577C25.4728 17.8949 25.5122 17.9478 25.5328 18.0087C25.618 18.2522 25.7885 18.7757 26.1294 19.8593C26.1498 19.901 26.1604 19.9468 26.1604 19.9932C26.1604 20.0397 26.1498 20.0855 26.1294 20.1272C26.1034 20.1674 26.0671 20.1999 26.0242 20.2213C25.9814 20.2427 25.9336 20.2522 25.8859 20.2489H22.4038C22.3231 20.2489 22.2457 20.2168 22.1886 20.1598C22.1315 20.1027 22.0994 20.0253 22.0994 19.9445V18.1183C22.0994 18.0396 22.1298 17.964 22.1842 17.9073C22.2387 17.8505 22.313 17.8171 22.3916 17.8139L25.2406 17.8017Z" fill="black"/>
<path d="M23.0004 27.5538C23.0004 28.0381 23.1928 28.5027 23.5353 28.8451C23.8777 29.1876 24.3423 29.38 24.8266 29.38C25.311 29.38 25.7755 29.1876 26.118 28.8451C26.4605 28.5027 26.6529 28.0381 26.6529 27.5538C26.6529 27.0694 26.4605 26.6049 26.118 26.2624C25.7755 25.9199 25.311 25.7275 24.8266 25.7275C24.3423 25.7275 23.8777 25.9199 23.5353 26.2624C23.1928 26.6049 23.0004 27.0694 23.0004 27.5538Z" fill="black"/>
<path d="M8.58522 16.9737C10.1041 16.9713 11.5883 16.5187 12.85 15.6731C14.1118 14.8275 15.0946 13.6268 15.6742 12.2228C16.2538 10.8188 16.4042 9.27453 16.1064 7.78509C15.8086 6.29565 15.0759 4.92791 14.001 3.85472C12.9262 2.78153 11.5573 2.05106 10.0673 1.75562C8.57743 1.46018 7.03338 1.61302 5.63031 2.19484C4.22724 2.77666 3.02813 3.76134 2.18451 5.02445C1.34089 6.28755 0.890627 7.77238 0.890625 9.29131C0.890624 10.3012 1.08974 11.3012 1.47658 12.2341C1.86342 13.1669 2.43039 14.0144 3.14506 14.7279C3.85973 15.4414 4.70807 16.0071 5.64155 16.3924C6.57503 16.7778 7.57533 16.9753 8.58522 16.9737ZM13.8205 9.29131C13.8229 10.3302 13.5169 11.3464 12.9412 12.2112C12.3655 13.076 11.5461 13.7505 10.5868 14.1491C9.62745 14.5478 8.57136 14.6527 7.55232 14.4507C6.53329 14.2486 5.59717 13.7486 4.86257 13.014C4.12798 12.2794 3.62796 11.3432 3.42587 10.3242C3.22379 9.30517 3.32873 8.24908 3.72741 7.28975C4.12608 6.33041 4.80054 5.511 5.66534 4.93533C6.53014 4.35966 7.54635 4.05365 8.58522 4.05606C9.97271 4.05927 11.3025 4.61187 12.2836 5.59298C13.2647 6.57408 13.8173 7.90382 13.8205 9.29131Z" fill="black"/>
<path d="M8.58518 10.5087H10.8254C11.1483 10.5087 11.458 10.3804 11.6863 10.1521C11.9146 9.92376 12.0429 9.61409 12.0429 9.29119C12.0429 8.96829 11.9146 8.65861 11.6863 8.43029C11.458 8.20196 11.1483 8.07369 10.8254 8.07369H10.1071C10.0263 8.07369 9.94891 8.04162 9.89182 7.98454C9.83474 7.92746 9.80268 7.85004 9.80268 7.76931V6.49094C9.80268 6.16804 9.6744 5.85836 9.44608 5.63004C9.21775 5.40171 8.90808 5.27344 8.58518 5.27344C8.26227 5.27344 7.9526 5.40171 7.72427 5.63004C7.49595 5.85836 7.36768 6.16804 7.36768 6.49094V9.29119C7.36768 9.61409 7.49595 9.92376 7.72427 10.1521C7.9526 10.3804 8.26227 10.5087 8.58518 10.5087Z" fill="black"/>
</g>
<defs>
<clipPath id="clip0_193_827">
<rect width="29.22" height="29.22" fill="white" transform="translate(0.890625 0.890625)"/>
</clipPath>
</defs>
</svg>
