<svg width="31" height="31" viewBox="0 0 31 31" fill="none" xmlns="http://www.w3.org/2000/svg">
<g clip-path="url(#clip0_193_817)">
<path fill-rule="evenodd" clip-rule="evenodd" d="M15.8357 6.77371C12.9411 9.01265 8.92151 13.1292 3.07079 19.1889C2.60374 19.6726 1.83298 19.6861 1.34925 19.2191C0.865518 18.752 0.851997 17.9812 1.31905 17.4975C7.11037 11.4994 11.2767 7.22165 14.3459 4.84763C15.8692 3.6695 17.2688 2.83994 18.5712 2.58202C19.2489 2.44782 19.9254 2.46299 20.5761 2.68324C21.2259 2.90311 21.7705 3.30043 22.2269 3.80882C23.048 4.72336 23.0096 5.89847 22.7418 6.87163C22.4709 7.8566 21.8963 8.9275 21.1969 9.99779C19.7893 12.1523 17.6516 14.637 15.5785 16.9692C13.5139 19.2919 12.1921 21.131 11.6057 22.4667C11.3117 23.1364 11.2596 23.5542 11.2862 23.7809C11.3037 23.9307 11.3494 24.0212 11.5246 24.127C11.6728 24.2165 11.9648 24.2868 12.553 24.0956C13.1368 23.9059 13.8309 23.5123 14.5814 22.9709C16.0485 21.9125 17.4703 20.4847 18.3469 19.6043L18.3963 19.5546C18.7341 19.2155 19.0806 18.8366 19.4566 18.4255C19.6329 18.2326 19.8158 18.0327 20.0074 17.8265C20.582 17.2075 21.2175 16.5512 21.8667 16.0267C22.4913 15.5222 23.274 15.0171 24.1471 14.8989C25.1565 14.762 26.0683 15.1659 26.7484 16.0321C27.6011 17.1181 27.3591 18.4048 27.0083 19.3417C26.6584 20.276 26.0481 21.2725 25.5121 22.1473L25.4685 22.2185C24.8854 23.1708 24.385 23.9979 24.1097 24.725C23.8267 25.4729 23.9174 25.76 23.9973 25.8798C24.1065 26.0436 24.1842 26.0657 24.3034 26.0698C24.5031 26.077 24.8401 26.0004 25.3134 25.755C26.2502 25.2691 27.2605 24.3654 27.9044 23.6571C28.3567 23.1596 29.1268 23.123 29.6242 23.5753C30.1218 24.0276 30.1585 24.7975 29.7062 25.2951C28.9641 26.1113 27.7292 27.2451 26.4345 27.9165C25.7922 28.2496 25.017 28.5317 24.2169 28.5033C23.3367 28.4721 22.5273 28.0644 21.9713 27.2305C21.2195 26.1028 21.4673 24.8277 21.8324 23.8632C22.1986 22.8954 22.821 21.8791 23.3629 20.9944L23.392 20.9469C23.9776 19.9906 24.4678 19.1823 24.7279 18.4877C24.9966 17.7702 24.869 17.5815 24.8332 17.536C24.6374 17.2864 24.5449 17.3008 24.485 17.3101C24.4813 17.3108 24.4776 17.3112 24.4741 17.3117C24.2779 17.3384 23.9255 17.4939 23.3968 17.9208C22.893 18.328 22.3576 18.8739 21.7918 19.4833C21.6305 19.657 21.4643 19.8386 21.2963 20.0222C20.9016 20.4537 20.4969 20.896 20.1216 21.2729C20.0956 21.299 20.0688 21.3259 20.0414 21.3535C19.1772 22.2217 17.6373 23.7687 16.006 24.9457C15.1675 25.5507 14.2364 26.109 13.3053 26.4116C12.3788 26.7125 11.2661 26.8152 10.2664 26.2118C9.46573 25.7285 8.97536 24.9832 8.86771 24.0642C8.76906 23.2222 9.00262 22.3385 9.37612 21.4879C10.1247 19.7829 11.6653 17.7064 13.7586 15.3515C15.8433 13.0062 17.8635 10.648 19.1585 8.66597C19.8105 7.66797 20.2232 6.84715 20.394 6.22592C20.5658 5.60134 20.4293 5.45128 20.4155 5.43616C20.1835 5.17763 19.9772 5.0512 19.7956 4.98972C19.615 4.92864 19.3792 4.9043 19.0443 4.97063C18.3213 5.11379 17.2946 5.64535 15.8357 6.77371Z" fill="#070707"/>
</g>
<defs>
<clipPath id="clip0_193_817">
<rect width="29.22" height="29.22" fill="white" transform="translate(0.890625 0.890625)"/>
</clipPath>
</defs>
</svg>
