<svg width="31" height="31" viewBox="0 0 31 31" fill="none" xmlns="http://www.w3.org/2000/svg">
<path fill-rule="evenodd" clip-rule="evenodd" d="M19.4187 1.58172C18.1347 1.47945 16.8262 1.41235 15.5 1.41235C13.1034 1.41235 10.7647 1.63147 8.52354 1.88129C5.03409 2.27023 2.23032 5.07158 1.85631 8.56736C1.74236 9.63244 1.63598 10.7188 1.55593 11.8226L19.4187 1.58172ZM1.41684 14.8871C1.41391 15.091 1.41239 15.2952 1.41239 15.5C1.41239 17.6214 1.57557 19.6976 1.77997 21.7027L28.6013 6.46941C27.7199 4.37939 25.9171 2.76087 23.7138 2.1265L1.62197 14.7919C1.55531 14.8301 1.48668 14.8618 1.41684 14.8871ZM29.2028 9.12809L2.33922 24.3854C3.23144 26.6315 5.17962 28.3573 7.55728 28.946L29.5263 16.1543C29.545 16.1433 29.5638 16.1329 29.583 16.123C29.5859 15.9158 29.5876 15.7081 29.5876 15.5C29.5876 13.3188 29.415 11.1855 29.2028 9.12809ZM29.4407 19.2228L11.8899 29.4421C13.0748 29.5308 14.2799 29.5876 15.5 29.5876C17.8966 29.5876 20.2353 29.3684 22.4764 29.1186C25.9659 28.7298 28.7697 25.9283 29.1437 22.4325C29.256 21.3821 29.3612 20.3109 29.4407 19.2228Z" fill="black"/>
</svg>
