<svg width="70" height="70" viewBox="0 0 70 70" fill="none" xmlns="http://www.w3.org/2000/svg">
<g clip-path="url(#clip0_253_890)">
<path d="M26.95 53.5208C26.95 55.1648 27.4375 56.7719 28.3509 58.1389C29.2642 59.5059 30.5625 60.5713 32.0814 61.2005C33.6003 61.8297 35.2717 61.9943 36.8841 61.6735C38.4966 61.3528 39.9777 60.5611 41.1403 59.3986C42.3028 58.2361 43.0945 56.7549 43.4152 55.1424C43.736 53.53 43.5714 51.8586 42.9422 50.3397C42.313 48.8208 41.2476 47.5226 39.8806 46.6092C38.5136 45.6958 36.9065 45.2083 35.2625 45.2083C33.0578 45.2083 30.9435 46.084 29.3846 47.6429C27.8257 49.2018 26.95 51.3161 26.95 53.5208Z" fill="#FAD12E"/>
<path d="M13.679 61.8333C15.323 61.8333 16.9301 61.3457 18.2971 60.4323C19.6641 59.519 20.7296 58.2207 21.3587 56.7018C21.9879 55.1829 22.1525 53.5115 21.8317 51.8991C21.511 50.2866 20.7193 48.8055 19.5568 47.6429C18.3943 46.4804 16.9131 45.6887 15.3006 45.368C13.6882 45.0472 12.0168 45.2119 10.4979 45.841C8.97899 46.4702 7.68075 47.5356 6.76736 48.9026C5.85397 50.2696 5.36646 51.8767 5.36646 53.5208C5.36646 55.7254 6.24223 57.8397 7.80113 59.3986C9.36003 60.9575 11.4743 61.8333 13.679 61.8333Z" fill="#FAD12E"/>
<path d="M48.0083 53.5208C48.0083 55.1648 48.4958 56.7719 49.4092 58.1389C50.3226 59.5059 51.6208 60.5713 53.1397 61.2005C54.6587 61.8297 56.33 61.9943 57.9425 61.6735C59.555 61.3528 61.0361 60.5611 62.1986 59.3986C63.3611 58.2361 64.1528 56.7549 64.4736 55.1424C64.7943 53.53 64.6297 51.8586 64.0005 50.3397C63.3714 48.8208 62.306 47.5226 60.939 46.6092C59.572 45.6958 57.9649 45.2083 56.3208 45.2083C54.1186 45.2159 52.0087 46.0942 50.4515 47.6514C48.8942 49.2087 48.016 51.3185 48.0083 53.5208Z" fill="#FAD12E"/>
<path d="M68.2207 67.6375C66.8193 65.8882 65.0441 64.4747 63.0254 63.5006C61.0066 62.5266 58.7955 62.0167 56.5541 62.0083C52.8023 62.0031 49.1834 63.3966 46.4041 65.9166C46.2741 66.0397 46.1018 66.1083 45.9228 66.1083C45.7438 66.1083 45.5716 66.0397 45.4416 65.9166C42.5906 63.4006 38.919 62.0122 35.1166 62.0122C31.3141 62.0122 27.6426 63.4006 24.7916 65.9166C24.6616 66.0397 24.4893 66.1083 24.3103 66.1083C24.1313 66.1083 23.9591 66.0397 23.8291 65.9166C21.0497 63.3966 17.4308 62.0031 13.6791 62.0083C11.4376 62.0167 9.22649 62.5266 7.20775 63.5006C5.189 64.4747 3.41384 65.8882 2.0124 67.6375C1.8434 67.8539 1.7376 68.1129 1.70671 68.3857C1.67582 68.6585 1.72105 68.9346 1.8374 69.1833C1.9379 69.3965 2.08857 69.5822 2.27652 69.7244C2.46446 69.8666 2.68408 69.9612 2.91657 70H67.0832C67.3566 70.0005 67.6245 69.9243 67.8566 69.7799C68.0887 69.6355 68.2755 69.4288 68.3957 69.1833C68.5121 68.9346 68.5573 68.6585 68.5264 68.3857C68.4955 68.1129 68.3897 67.8539 68.2207 67.6375Z" fill="#FAD12E"/>
<path d="M25.2 27.7083H44.8292C45.0552 27.7061 45.2777 27.6524 45.4799 27.5513C45.682 27.4502 45.8585 27.3044 45.9958 27.1249C46.1259 26.941 46.2142 26.7308 46.2545 26.5091C46.2948 26.2874 46.2862 26.0596 46.2292 25.8416C45.7039 24.0586 44.7601 22.4269 43.4766 21.0825C42.193 19.738 40.6068 18.7198 38.85 18.1124C40.8405 17.2357 42.469 15.7012 43.4622 13.7662C44.4555 11.8312 44.7531 9.61353 44.3051 7.48515C43.8572 5.35676 42.6909 3.44717 41.002 2.0767C39.313 0.706224 37.2042 -0.041748 35.0292 -0.041748C32.8542 -0.041748 30.7453 0.706224 29.0564 2.0767C27.3674 3.44717 26.2012 5.35676 25.7532 7.48515C25.3053 9.61353 25.6029 11.8312 26.5961 13.7662C27.5894 15.7012 29.2178 17.2357 31.2083 18.1124C29.4521 18.7263 27.8656 19.7464 26.5782 21.0895C25.2909 22.4327 24.3389 24.0609 23.8 25.8416C23.743 26.0596 23.7344 26.2874 23.7747 26.5091C23.815 26.7308 23.9033 26.941 24.0333 27.1249C24.1707 27.3044 24.3472 27.4502 24.5493 27.5513C24.7515 27.6524 24.974 27.7061 25.2 27.7083Z" fill="#FAD12E"/>
<path d="M14.5833 34.9999C14.5833 35.7735 14.8905 36.5153 15.4375 37.0623C15.9845 37.6093 16.7264 37.9166 17.4999 37.9166H18.8999C19.0655 37.9199 19.225 37.9794 19.3523 38.0854C19.4795 38.1915 19.5668 38.3376 19.5999 38.4999L20.4166 42.8749C20.5713 43.6485 21.027 44.3289 21.6833 44.7665C22.0083 44.9831 22.3728 45.1337 22.756 45.2095C23.1392 45.2853 23.5336 45.2849 23.9166 45.2083C24.2996 45.1316 24.6638 44.9804 24.9883 44.763C25.3129 44.5457 25.5915 44.2665 25.8081 43.9415C26.0248 43.6165 26.1753 43.252 26.2511 42.8688C26.3269 42.4856 26.3265 42.0913 26.2499 41.7083L25.6666 38.7916C25.6389 38.6854 25.6378 38.574 25.6632 38.4672C25.6886 38.3604 25.7399 38.2615 25.8124 38.1791C25.9219 38.0418 26.0772 37.9485 26.2499 37.9166H43.7499C43.8558 37.9175 43.9602 37.9414 44.0559 37.9868C44.1516 38.0321 44.2363 38.0977 44.3041 38.1791C44.3767 38.2615 44.4279 38.3604 44.4533 38.4672C44.4788 38.574 44.4776 38.6854 44.4499 38.7916L43.8666 41.7083C43.7119 42.4818 43.8708 43.2851 44.3084 43.9415C44.746 44.5979 45.4264 45.0535 46.1999 45.2083C46.9735 45.363 47.7768 45.204 48.4332 44.7665C49.0895 44.3289 49.5452 43.6485 49.6999 42.8749L50.5749 38.4999C50.608 38.3376 50.6954 38.1915 50.8226 38.0854C50.9498 37.9794 51.1093 37.9199 51.2749 37.9166H52.4999C53.2735 37.9166 54.0153 37.6093 54.5623 37.0623C55.1093 36.5153 55.4166 35.7735 55.4166 34.9999C55.4166 34.2264 55.1093 33.4845 54.5623 32.9375C54.0153 32.3905 53.2735 32.0833 52.4999 32.0833H17.4999C16.7264 32.0833 15.9845 32.3905 15.4375 32.9375C14.8905 33.4845 14.5833 34.2264 14.5833 34.9999Z" fill="#FAD12E"/>
</g>
<defs>
<clipPath id="clip0_253_890">
<rect width="70" height="70" fill="white"/>
</clipPath>
</defs>
</svg>
