<svg width="30" height="30" viewBox="0 0 30 30" fill="none" xmlns="http://www.w3.org/2000/svg">
<g clip-path="url(#clip0_193_793)">
<path d="M1.2175 19.4799H4.60215C4.67127 19.4813 4.73786 19.5061 4.79097 19.5504C4.84408 19.5946 4.88054 19.6557 4.89435 19.7234C4.95048 19.9984 5.09991 20.2456 5.31733 20.423C5.53476 20.6005 5.80683 20.6975 6.0875 20.6974H6.39187C6.4726 20.6974 6.55002 20.7295 6.6071 20.7865C6.66418 20.8436 6.69625 20.921 6.69625 21.0018V21.3061C6.69625 21.629 6.82452 21.9387 7.05285 22.167C7.28117 22.3954 7.59085 22.5236 7.91375 22.5236C8.23665 22.5236 8.54633 22.3954 8.77465 22.167C9.00298 21.9387 9.13125 21.629 9.13125 21.3061V21.0018C9.13125 20.921 9.16332 20.8436 9.2204 20.7865C9.27748 20.7295 9.3549 20.6974 9.43563 20.6974H9.74C10.0629 20.6974 10.3726 20.5691 10.6009 20.3408C10.8292 20.1125 10.9575 19.8028 10.9575 19.4799V17.0449C10.9575 16.722 10.8292 16.4123 10.6009 16.184C10.3726 15.9557 10.0629 15.8274 9.74 15.8274H6.0875C5.80267 15.8217 5.52485 15.916 5.30239 16.0939C5.07993 16.2719 4.92692 16.5223 4.87 16.8014C4.85619 16.8691 4.81973 16.9302 4.76662 16.9744C4.71351 17.0187 4.64692 17.0435 4.5778 17.0449H1.2175C0.894599 17.0449 0.584923 17.1732 0.356598 17.4015C0.128272 17.6298 0 17.9395 0 18.2624C0 18.5853 0.128272 18.895 0.356598 19.1233C0.584923 19.3516 0.894599 19.4799 1.2175 19.4799Z" fill="black"/>
<path d="M26.785 0H7.91375C6.7836 0 5.69973 0.448952 4.90059 1.24809C4.10145 2.04723 3.6525 3.1311 3.6525 4.26125V10.9575C3.6525 11.2804 3.78077 11.5901 4.0091 11.8184C4.23742 12.0467 4.5471 12.175 4.87 12.175H5.78312C5.86385 12.175 5.94127 12.2071 5.99835 12.2641C6.05543 12.3212 6.0875 12.3986 6.0875 12.4794V14.0012C6.0875 14.1627 6.15164 14.3175 6.2658 14.4317C6.37996 14.5459 6.5348 14.61 6.69625 14.61H9.13125C9.2927 14.61 9.44754 14.5459 9.5617 14.4317C9.67586 14.3175 9.74 14.1627 9.74 14.0012V12.4794C9.74 12.3986 9.77207 12.3212 9.82915 12.2641C9.88623 12.2071 9.96365 12.175 10.0444 12.175H12.175C12.3365 12.175 12.4913 12.2391 12.6055 12.3533C12.7196 12.4675 12.7837 12.6223 12.7837 12.7837V23.7412C12.7837 23.9027 12.7196 24.0575 12.6055 24.1717C12.4913 24.2859 12.3365 24.35 12.175 24.35H1.2175C0.894599 24.35 0.584923 24.4783 0.356598 24.7066C0.128272 24.9349 0 25.2446 0 25.5675L0 28.0025C0 28.3254 0.128272 28.6351 0.356598 28.8634C0.584923 29.0917 0.894599 29.22 1.2175 29.22H28.0025C28.3254 29.22 28.6351 29.0917 28.8634 28.8634C29.0917 28.6351 29.22 28.3254 29.22 28.0025V2.435C29.22 1.7892 28.9635 1.16985 28.5068 0.713195C28.0502 0.256544 27.4308 0 26.785 0ZM8.5225 6.69625C8.1613 6.69625 7.80821 6.58914 7.50789 6.38847C7.20756 6.1878 6.97349 5.90258 6.83526 5.56888C6.69704 5.23517 6.66087 4.86797 6.73134 4.51372C6.80181 4.15946 6.97574 3.83405 7.23115 3.57865C7.48655 3.32324 7.81196 3.14931 8.16622 3.07884C8.52047 3.00837 8.88767 3.04454 9.22138 3.18277C9.55508 3.32099 9.8403 3.55506 10.041 3.85539C10.2416 4.15571 10.3488 4.5088 10.3488 4.87C10.3488 5.35435 10.1563 5.81887 9.81385 6.16135C9.47137 6.50384 9.00685 6.69625 8.5225 6.69625ZM26.4806 11.2619H21.6106C21.3684 11.2619 21.1362 11.1657 20.9649 10.9944C20.7937 10.8232 20.6975 10.5909 20.6975 10.3488C20.6975 10.1066 20.7937 9.87432 20.9649 9.70307C21.1362 9.53183 21.3684 9.43563 21.6106 9.43563H26.4806C26.7228 9.43563 26.9551 9.53183 27.1263 9.70307C27.2975 9.87432 27.3937 10.1066 27.3937 10.3488C27.3937 10.5909 27.2975 10.8232 27.1263 10.9944C26.9551 11.1657 26.7228 11.2619 26.4806 11.2619ZM26.4806 7.60938H21.6106C21.3684 7.60938 21.1362 7.51317 20.9649 7.34193C20.7937 7.17068 20.6975 6.93843 20.6975 6.69625C20.6975 6.45407 20.7937 6.22182 20.9649 6.05057C21.1362 5.87933 21.3684 5.78312 21.6106 5.78312H26.4806C26.7228 5.78312 26.9551 5.87933 27.1263 6.05057C27.2975 6.22182 27.3937 6.45407 27.3937 6.69625C27.3937 6.93843 27.2975 7.17068 27.1263 7.34193C26.9551 7.51317 26.7228 7.60938 26.4806 7.60938Z" fill="black"/>
</g>
<defs>
<clipPath id="clip0_193_793">
<rect width="29.22" height="29.22" fill="white"/>
</clipPath>
</defs>
</svg>
