<svg width="70" height="70" viewBox="0 0 70 70" fill="none" xmlns="http://www.w3.org/2000/svg">
<g clip-path="url(#clip0_253_883)">
<path d="M17.0335 19.3083H35.7293C35.9177 19.3085 36.0989 19.2357 36.2348 19.1052C36.3708 18.9747 36.4509 18.7966 36.4585 18.6083V13.475C36.4508 12.8999 36.2169 12.351 35.8075 11.947C35.3981 11.5431 34.8461 11.3166 34.271 11.3167H31.3543C28.5321 11.3135 25.7424 11.9189 23.1754 13.0917C20.6083 14.2645 18.3244 15.977 16.4793 18.1125C16.4102 18.2322 16.3738 18.368 16.3738 18.5062C16.3738 18.6445 16.4102 18.7803 16.4793 18.9C16.5287 19.01 16.6056 19.1054 16.7027 19.177C16.7998 19.2485 16.9137 19.2938 17.0335 19.3083Z" fill="#FAD12E"/>
<path d="M67.8127 56.5251H67.0835V55.7668C67.0758 54.8049 66.6883 53.8851 66.0054 53.2077C65.3225 52.5302 64.3996 52.1501 63.4377 52.1501H59.9377C59.8022 52.1501 59.6695 52.1879 59.5543 52.259C59.4391 52.3302 59.346 52.4321 59.2855 52.5532C59.2249 52.6743 59.1993 52.8099 59.2114 52.9448C59.2236 53.0797 59.2731 53.2085 59.3543 53.3168C60.5809 54.8365 61.25 56.7305 61.2502 58.6835C61.2803 59.1302 61.2803 59.5784 61.2502 60.0251C61.2238 60.2402 61.2756 60.4575 61.396 60.6376C61.5396 60.7938 61.7384 60.8879 61.9502 60.9001H67.9293C68.5122 60.8925 69.0685 60.6556 69.4779 60.2407C69.8873 59.8258 70.1169 59.2664 70.1168 58.6835C70.1133 58.3886 70.0502 58.0975 69.9313 57.8276C69.8124 57.5577 69.6402 57.3146 69.4249 57.113C69.2097 56.9114 68.9559 56.7554 68.6789 56.6544C68.4018 56.5534 68.1072 56.5094 67.8127 56.5251Z" fill="#FAD12E"/>
<path d="M47.1043 51.8292C47.1932 51.7598 47.2656 51.6714 47.316 51.5705C47.3665 51.4696 47.3938 51.3587 47.3959 51.2459V14.2334C47.3959 13.4599 47.7032 12.718 48.2502 12.171C48.7972 11.624 49.5391 11.3167 50.3126 11.3167H51.7709C52.5445 11.3167 53.2864 11.0094 53.8333 10.4625C54.3803 9.91548 54.6876 9.17361 54.6876 8.40006C54.6876 7.62652 54.3803 6.88465 53.8333 6.33767C53.2864 5.79069 52.5445 5.4834 51.7709 5.4834H50.3126C47.992 5.4834 45.7664 6.40527 44.1254 8.04621C42.4845 9.68716 41.5626 11.9128 41.5626 14.2334V51.3917C41.5628 51.5879 41.4869 51.7765 41.3509 51.9179C41.2149 52.0593 41.0295 52.1425 40.8334 52.1501H37.1876C36.9916 52.1425 36.8061 52.0593 36.6702 51.9179C36.5342 51.7765 36.4583 51.5879 36.4584 51.3917V22.9834C36.4586 22.7872 36.3827 22.5986 36.2467 22.4572C36.1108 22.3158 35.9253 22.2326 35.7293 22.2251H14.2334C14.0911 22.2246 13.9518 22.2657 13.8326 22.3435C13.7134 22.4212 13.6195 22.5321 13.5626 22.6626C13.2846 23.2307 13.0411 23.8151 12.8334 24.4126C12.0534 26.5122 11.6582 28.7352 11.6668 30.9751V38.2667C11.6669 38.4629 11.591 38.6515 11.4551 38.7929C11.3191 38.9343 11.1336 39.0175 10.9376 39.0251H10.0334C8.13626 39.0142 6.29753 39.681 4.84841 40.9056C3.39929 42.1301 2.43503 43.8318 2.12928 45.7042L0.00011304 58.3334C-0.0583085 58.6481 -0.0440044 58.9721 0.041932 59.2804C0.127869 59.5888 0.283163 59.8734 0.495946 60.1126C0.6994 60.3544 0.95415 60.548 1.24171 60.6791C1.52927 60.8103 1.84242 60.8758 2.15845 60.8709H5.07511C5.21912 60.9001 5.36858 60.885 5.5039 60.8278C5.63922 60.7705 5.75409 60.6737 5.83345 60.5501C5.90294 60.4712 5.95456 60.3782 5.98476 60.2775C6.01497 60.1769 6.02305 60.0708 6.00845 59.9667C5.96393 59.5401 5.96393 59.11 6.00845 58.6834C6.00845 56.3628 6.93032 54.1372 8.57126 52.4962C10.2122 50.8553 12.4378 49.9334 14.7584 49.9334C17.0791 49.9334 19.3047 50.8553 20.9456 52.4962C22.5866 54.1372 23.5084 56.3628 23.5084 58.6834C23.5386 59.1301 23.5386 59.5784 23.5084 60.0251C23.4372 60.223 23.4372 60.4396 23.5084 60.6376C23.6521 60.7937 23.8508 60.8879 24.0626 60.9001H43.3126C43.5244 60.8879 43.7232 60.7937 43.8668 60.6376C43.938 60.4396 43.938 60.223 43.8668 60.0251C43.8367 59.5784 43.8367 59.1301 43.8668 58.6834C43.858 57.3713 44.1444 56.074 44.7048 54.8875C45.2652 53.7011 46.0853 52.6559 47.1043 51.8292ZM28.4376 37.9167C28.3601 38.2305 28.1805 38.5096 27.9271 38.7102C27.6737 38.9108 27.3608 39.0216 27.0376 39.0251H19.7751C19.3907 39.0176 19.0241 38.8616 18.7522 38.5897C18.4803 38.3178 18.3242 37.9512 18.3168 37.5667V30.9751C18.3261 29.895 18.4532 28.8192 18.6959 27.7667C18.757 27.4397 18.9303 27.1443 19.1859 26.9313C19.4414 26.7183 19.7633 26.6012 20.0959 26.6001H29.1668C29.5536 26.6001 29.9245 26.7537 30.198 27.0272C30.4715 27.3007 30.6251 27.6716 30.6251 28.0584L28.4376 37.9167Z" fill="#FAD12E"/>
<path d="M8.75 58.7125C8.75 59.4785 8.90088 60.2371 9.19404 60.9448C9.48719 61.6525 9.91687 62.2956 10.4585 62.8373C11.0002 63.3789 11.6433 63.8086 12.351 64.1018C13.0587 64.3949 13.8173 64.5458 14.5833 64.5458C15.3494 64.5458 16.1079 64.3949 16.8157 64.1018C17.5234 63.8086 18.1664 63.3789 18.7081 62.8373C19.2498 62.2956 19.6795 61.6525 19.9726 60.9448C20.2658 60.2371 20.4167 59.4785 20.4167 58.7125C20.4167 57.9464 20.2658 57.1879 19.9726 56.4802C19.6795 55.7724 19.2498 55.1294 18.7081 54.5877C18.1664 54.046 17.5234 53.6163 16.8157 53.3232C16.1079 53.03 15.3494 52.8792 14.5833 52.8792C13.8173 52.8792 13.0587 53.03 12.351 53.3232C11.6433 53.6163 11.0002 54.046 10.4585 54.5877C9.91687 55.1294 9.48719 55.7724 9.19404 56.4802C8.90088 57.1879 8.75 57.9464 8.75 58.7125Z" fill="#FAD12E"/>
<path d="M46.6667 58.7125C46.6667 60.2596 47.2813 61.7433 48.3753 62.8373C49.4693 63.9312 50.953 64.5458 52.5001 64.5458C54.0472 64.5458 55.5309 63.9312 56.6249 62.8373C57.7188 61.7433 58.3334 60.2596 58.3334 58.7125C58.3334 57.1654 57.7188 55.6817 56.6249 54.5877C55.5309 53.4937 54.0472 52.8792 52.5001 52.8792C50.953 52.8792 49.4693 53.4937 48.3753 54.5877C47.2813 55.6817 46.6667 57.1654 46.6667 58.7125Z" fill="#FAD12E"/>
</g>
<defs>
<clipPath id="clip0_253_883">
<rect width="70" height="70" fill="white"/>
</clipPath>
</defs>
</svg>
