<svg width="70" height="70" viewBox="0 0 70 70" fill="none" xmlns="http://www.w3.org/2000/svg">
<g clip-path="url(#clip0_253_879)">
<path d="M63.9918 26.7751C63.7802 26.6953 63.5905 26.5665 63.4384 26.3992C63.2863 26.2318 63.1761 26.0308 63.1168 25.8126C62.4851 23.476 61.5538 21.231 60.3459 19.1334C60.2455 18.9292 60.1933 18.7047 60.1933 18.4772C60.1933 18.2496 60.2455 18.0251 60.3459 17.8209C60.9184 16.4866 61.0777 15.0114 60.8034 13.5856C60.5291 12.1598 59.8337 10.849 58.807 9.82234C57.7804 8.79568 56.4696 8.10031 55.0438 7.82599C53.618 7.55168 52.1428 7.71102 50.8084 8.28344C50.6042 8.38382 50.3797 8.43602 50.1522 8.43602C49.9246 8.43602 49.7001 8.38382 49.4959 8.28344C47.3984 7.0756 45.1534 6.14426 42.8168 5.5126C42.5986 5.4533 42.3975 5.34307 42.2302 5.19095C42.0629 5.03884 41.934 4.8492 41.8543 4.6376C41.3011 3.29801 40.3628 2.15273 39.1582 1.34688C37.9536 0.541018 36.5369 0.11084 35.0876 0.11084C33.6383 0.11084 32.2216 0.541018 31.017 1.34688C29.8124 2.15273 28.8741 3.29801 28.3209 4.6376C28.2412 4.8492 28.1123 5.03884 27.945 5.19095C27.7777 5.34307 27.5767 5.4533 27.3584 5.5126C25.0147 6.19031 22.7694 7.1708 20.6793 8.42927C20.4751 8.52966 20.2506 8.58186 20.023 8.58186C19.7955 8.58186 19.571 8.52966 19.3668 8.42927C18.0437 7.85401 16.5792 7.68587 15.1601 7.9463C13.741 8.20673 12.4317 8.88393 11.3991 9.89152C10.3664 10.8991 9.65733 12.1914 9.36216 13.6037C9.06699 15.0159 9.19915 16.4841 9.74177 17.8209C9.84216 18.0251 9.89436 18.2496 9.89436 18.4772C9.89436 18.7047 9.84216 18.9292 9.74177 19.1334C8.4833 21.2236 7.50281 23.4689 6.8251 25.8126C6.7658 26.0308 6.65557 26.2318 6.50345 26.3992C6.35134 26.5665 6.1617 26.6953 5.9501 26.7751C4.61051 27.3282 3.46523 28.2666 2.65938 29.4712C1.85352 30.6758 1.42334 32.0925 1.42334 33.5418C1.42334 34.9911 1.85352 36.4078 2.65938 37.6124C3.46523 38.817 4.61051 39.7553 5.9501 40.3084C6.15752 40.39 6.34248 40.5198 6.4896 40.6872C6.63671 40.8546 6.74174 41.0548 6.79594 41.2709C8.18751 46.3559 10.9406 50.9645 14.7584 54.6001C15.0296 54.8735 15.3522 55.0905 15.7076 55.2385C16.063 55.3866 16.4442 55.4628 16.8293 55.4628C17.2143 55.4628 17.5955 55.3866 17.951 55.2385C18.3064 55.0905 18.629 54.8735 18.9001 54.6001C19.4433 54.0536 19.7482 53.3144 19.7482 52.5439C19.7482 51.7733 19.4433 51.0341 18.9001 50.4876C16.1047 47.8201 14.0109 44.5041 12.8043 40.8334C12.7198 40.5469 12.7217 40.2419 12.8099 39.9565C12.8982 39.6711 13.0687 39.4181 13.3001 39.2293C14.1565 38.5492 14.8483 37.6845 15.3239 36.6997C15.7994 35.7149 16.0464 34.6354 16.0464 33.5418C16.0464 32.4482 15.7994 31.3687 15.3239 30.3839C14.8483 29.399 14.1565 28.5343 13.3001 27.8543C13.0673 27.6669 12.8978 27.4125 12.8143 27.1256C12.7308 26.8387 12.7375 26.5331 12.8334 26.2501C13.208 25.1423 13.6563 24.0607 14.1751 23.0126C14.3126 22.7515 14.5247 22.5372 14.7844 22.3969C15.0441 22.2567 15.3397 22.1969 15.6334 22.2251C16.7187 22.3399 17.8159 22.2105 18.8448 21.8465C19.8736 21.4825 20.8081 20.8932 21.5798 20.1215C22.3515 19.3498 22.9409 18.4153 23.3049 17.3865C23.6688 16.3576 23.7982 15.2604 23.6834 14.1751C23.6591 13.8818 23.7205 13.5878 23.8604 13.3289C24.0002 13.0699 24.2123 12.8572 24.4709 12.7168C25.519 12.1979 26.6006 11.7497 27.7084 11.3751C27.9914 11.2792 28.2971 11.2725 28.584 11.356C28.8709 11.4394 29.1252 11.609 29.3126 11.8418C29.9927 12.6982 30.8574 13.39 31.8422 13.8655C32.827 14.3411 33.9065 14.588 35.0001 14.588C36.0937 14.588 37.1732 14.3411 38.158 13.8655C39.1428 13.39 40.0075 12.6982 40.6876 11.8418C40.875 11.609 41.1293 11.4394 41.4162 11.356C41.7032 11.2725 42.0088 11.2792 42.2918 11.3751C43.3996 11.7497 44.4812 12.1979 45.5293 12.7168C45.7904 12.8543 46.0047 13.0664 46.1449 13.3261C46.2852 13.5858 46.345 13.8813 46.3168 14.1751C46.202 15.2604 46.3314 16.3576 46.6953 17.3865C47.0593 18.4153 47.6487 19.3498 48.4204 20.1215C49.1921 20.8932 50.1266 21.4825 51.1554 21.8465C52.1843 22.2105 53.2815 22.3399 54.3668 22.2251C54.6605 22.1969 54.9561 22.2567 55.2158 22.3969C55.4755 22.5372 55.6876 22.7515 55.8251 23.0126C56.3439 24.0607 56.7922 25.1423 57.1668 26.2501C57.2627 26.5331 57.2694 26.8387 57.1859 27.1256C57.1024 27.4125 56.9329 27.6669 56.7001 27.8543C55.8437 28.5343 55.1519 29.399 54.6763 30.3839C54.2008 31.3687 53.9538 32.4482 53.9538 33.5418C53.9538 34.6354 54.2008 35.7149 54.6763 36.6997C55.1519 37.6845 55.8437 38.5492 56.7001 39.2293C56.938 39.413 57.1133 39.6657 57.202 39.9528C57.2908 40.24 57.2887 40.5475 57.1959 40.8334C55.9837 44.4622 53.9124 47.7443 51.1584 50.4001C50.8489 50.6555 50.5955 50.972 50.4139 51.3298C50.2323 51.6876 50.1265 52.079 50.1031 52.4796C50.0797 52.8801 50.1391 53.2812 50.2778 53.6577C50.4165 54.0343 50.6313 54.3781 50.909 54.6678C51.1866 54.9575 51.521 55.1868 51.8913 55.3414C52.2616 55.4959 52.6598 55.5724 53.061 55.5661C53.4622 55.5597 53.8577 55.4706 54.2229 55.3044C54.5881 55.1382 54.9151 54.8984 55.1834 54.6001C59.0013 50.9645 61.7544 46.3559 63.1459 41.2709C63.2043 41.0532 63.3106 40.8512 63.4569 40.6796C63.6032 40.5081 63.7859 40.3713 63.9918 40.2793C65.3336 39.7322 66.482 38.7977 67.2905 37.5951C68.0989 36.3925 68.5307 34.9763 68.5307 33.5272C68.5307 32.0781 68.0989 30.6619 67.2905 29.4593C66.482 28.2566 65.3336 27.3222 63.9918 26.7751Z" fill="#FAD12E"/>
<path d="M61.2502 64.1668H52.5002C52.2114 64.1693 51.9286 64.0843 51.6891 63.9229C51.4496 63.7615 51.2646 63.5313 51.1585 63.2627L40.3668 37.6252C40.3177 37.4978 40.3053 37.3592 40.3311 37.2251C40.3569 37.091 40.4198 36.9669 40.5127 36.8668C41.4275 35.8102 42.0194 34.513 42.2179 33.1296C42.4164 31.7461 42.2131 30.3348 41.6323 29.0636C41.0515 27.7924 40.1176 26.7149 38.9417 25.9594C37.7659 25.2039 36.3978 24.8022 35.0002 24.8022C33.6026 24.8022 32.2344 25.2039 31.0586 25.9594C29.8828 26.7149 28.9488 27.7924 28.368 29.0636C27.7872 30.3348 27.5839 31.7461 27.7824 33.1296C27.9809 34.513 28.5728 35.8102 29.4877 36.8668C29.5805 36.9669 29.6434 37.091 29.6692 37.2251C29.695 37.3592 29.6826 37.4978 29.6335 37.6252L18.8418 63.2627C18.7357 63.5313 18.5508 63.7615 18.3113 63.9229C18.0718 64.0843 17.789 64.1693 17.5002 64.1668H8.75016C7.97661 64.1668 7.23475 64.4741 6.68777 65.0211C6.14079 65.5681 5.8335 66.31 5.8335 67.0835C5.8335 67.857 6.14079 68.5989 6.68777 69.1459C7.23475 69.6929 7.97661 70.0002 8.75016 70.0002H61.2502C62.0237 70.0002 62.7656 69.6929 63.3126 69.1459C63.8595 68.5989 64.1668 67.857 64.1668 67.0835C64.1668 66.31 63.8595 65.5681 63.3126 65.0211C62.7656 64.4741 62.0237 64.1668 61.2502 64.1668ZM44.7127 63.846C44.6433 63.9442 44.5516 64.0245 44.4451 64.0803C44.3386 64.1361 44.2204 64.1657 44.1002 64.1668H25.9002C25.7799 64.1657 25.6617 64.1361 25.5552 64.0803C25.4487 64.0245 25.357 63.9442 25.2877 63.846C25.2377 63.7361 25.2119 63.6167 25.2119 63.496C25.2119 63.3753 25.2377 63.2559 25.2877 63.146L34.7377 40.6293C34.7649 40.5669 34.8097 40.5137 34.8667 40.4764C34.9237 40.4391 34.9904 40.4192 35.0585 40.4192C35.1266 40.4192 35.1933 40.4391 35.2503 40.4764C35.3072 40.5137 35.3521 40.5669 35.3793 40.6293L44.8293 63.146C44.8617 63.2642 44.8681 63.388 44.848 63.5088C44.8278 63.6297 44.7817 63.7447 44.7127 63.846Z" fill="#FAD12E"/>
</g>
<defs>
<clipPath id="clip0_253_879">
<rect width="70" height="70" fill="white"/>
</clipPath>
</defs>
</svg>
